<svg id="Layer_1" enable-background="new 0 0 256 256" height="64" viewBox="0 0 256 256" width="64" xmlns="http://www.w3.org/2000/svg"><g>
<g fill="#ebe7f2">
<path d="m102.382 159.357h-74.266c-1.381 0-2.5-1.119-2.5-2.5s1.119-2.5 2.5-2.5h74.266c1.381 0 2.5 1.119 2.5 2.5s-1.119 2.5-2.5 2.5z"/>
<path d="m228.301 159.357h-74.809c-1.381 0-2.5-1.119-2.5-2.5s1.119-2.5 2.5-2.5h74.809c1.381 0 2.5 1.119 2.5 2.5s-1.119 2.5-2.5 2.5z"/>
<path d="m153.618 171.721h-51.235c-1.381 0-2.5-1.119-2.5-2.5s1.119-2.5 2.5-2.5h51.235c1.381 0 2.5 1.119 2.5 2.5s-1.119 2.5-2.5 2.5z"/></g>
<g fill="#f9b087">
<path d="m128 102.266c10.103 0 18.323-8.22 18.323-18.322 0-10.104-8.22-18.323-18.323-18.323s-18.323 8.22-18.323 18.323c0 10.102 8.22 18.322 18.323 18.322zm0-31.646c7.346 0 13.323 5.977 13.323 13.323s-5.977 13.322-13.323 13.322-13.323-5.977-13.323-13.322c0-7.346 5.977-13.323 13.323-13.323z"/>
<path d="m168.036 103.493c8.893 0 16.128-7.235 16.128-16.128 0-8.894-7.235-16.129-16.128-16.129s-16.128 7.235-16.128 16.129c0 8.893 7.235 16.128 16.128 16.128zm0-27.257c6.136 0 11.128 4.992 11.128 11.129 0 6.136-4.992 11.128-11.128 11.128s-11.128-4.992-11.128-11.128 4.992-11.129 11.128-11.129z"/><path d="m216.527 106.354h-21.2c-3.021 0-5.954 1.002-8.352 2.816-2.323-1.759-5.206-2.816-8.338-2.816h-21.2c-2.998 0-5.909.986-8.296 2.773-2.518-1.723-5.559-2.735-8.833-2.735h-24.613c-3.275 0-6.316 1.012-8.833 2.735-2.387-1.787-5.298-2.773-8.296-2.773h-21.2c-3.132 0-6.015 1.057-8.338 2.816-2.398-1.814-5.331-2.816-8.352-2.816h-21.2c-7.641 0-13.857 6.217-13.857 13.857v49.009c0 1.381 1.119 2.5 2.5 2.5h71.892v16.159c0 1.381 1.119 2.5 2.5 2.5h50.983c1.381 0 2.5-1.119 2.5-2.5v-16.159h71.892c1.381 0 2.5-1.119 2.5-2.5v-49.009c-.002-7.64-6.219-13.857-13.859-13.857zm-185.911 13.858c0-4.884 3.973-8.857 8.857-8.857h21.2c1.773 0 3.498.539 4.955 1.523-1.336 2.13-2.122 4.64-2.122 7.334v46.509h-32.89zm37.891 46.509v-46.509c0-4.884 3.973-8.857 8.857-8.857h21.2c1.637 0 3.233.461 4.616 1.306-1.982 2.626-3.172 5.882-3.172 9.418v44.643h-31.501zm82.485 18.659h-45.983v-63.302c0-5.892 4.793-10.686 10.685-10.686h24.613c5.892 0 10.685 4.794 10.685 10.686zm36.501-18.659h-31.501v-44.643c0-3.536-1.19-6.792-3.172-9.418 1.383-.845 2.979-1.306 4.616-1.306h21.2c4.884 0 8.857 3.974 8.857 8.857zm37.891 0h-32.891v-46.509c0-2.695-.786-5.204-2.122-7.334 1.457-.984 3.182-1.523 4.955-1.523h21.2c4.884 0 8.857 3.974 8.857 8.857v46.509z"/>
<path d="m205.927 103.493c8.893 0 16.128-7.235 16.128-16.128 0-8.894-7.235-16.129-16.128-16.129s-16.128 7.235-16.128 16.129c-.001 8.893 7.235 16.128 16.128 16.128zm0-27.257c6.136 0 11.128 4.992 11.128 11.129 0 6.136-4.992 11.128-11.128 11.128s-11.128-4.992-11.128-11.128c-.001-6.136 4.992-11.129 11.128-11.129z"/><path d="m87.964 103.493c8.893 0 16.128-7.235 16.128-16.128 0-8.894-7.235-16.129-16.128-16.129s-16.128 7.235-16.128 16.129c-.001 8.893 7.235 16.128 16.128 16.128zm0-27.257c6.136 0 11.128 4.992 11.128 11.129 0 6.136-4.992 11.128-11.128 11.128s-11.128-4.992-11.128-11.128c-.001-6.136 4.992-11.129 11.128-11.129z"/>
<path d="m50.073 103.493c8.893 0 16.128-7.235 16.128-16.128 0-8.894-7.235-16.129-16.128-16.129s-16.128 7.235-16.128 16.129c0 8.893 7.235 16.128 16.128 16.128zm0-27.257c6.136 0 11.128 4.992 11.128 11.129 0 6.136-4.992 11.128-11.128 11.128s-11.128-4.992-11.128-11.128 4.992-11.129 11.128-11.129z"/></g><g fill="#846f75"><path d="m214.109 179.966c-1.163-.744-2.709-.404-3.453.76-18.134 28.367-49.033 45.303-82.656 45.303s-64.521-16.936-82.655-45.303c-.743-1.162-2.289-1.503-3.453-.76-1.163.744-1.503 2.29-.76 3.453 19.057 29.811 51.532 47.609 86.868 47.609 35.337 0 67.812-17.798 86.869-47.609.744-1.163.403-2.709-.76-3.453z"/><path d="m53.472 64.319c18.669-21.828 45.833-34.348 74.529-34.348 28.695 0 55.861 12.52 74.53 34.348.495.578 1.196.875 1.901.875.575 0 1.153-.197 1.624-.601 1.049-.896 1.172-2.475.275-3.524-19.621-22.94-48.171-36.098-78.33-36.098s-58.709 13.158-78.329 36.098c-.897 1.05-.774 2.628.275 3.525s2.628.776 3.525-.275z"/>
<path d="m73.096 180.322c-.968.984-.954 2.567.031 3.535 14.73 14.473 34.218 22.443 54.873 22.443s40.143-7.971 54.874-22.444c.985-.968.999-2.551.031-3.535-.968-.985-2.551-1-3.535-.031-13.791 13.549-32.034 21.011-51.37 21.011s-37.579-7.462-51.369-21.01c-.985-.968-2.568-.955-3.535.031z"/><path d="m90.767 64.845c11.234-6.638 24.109-10.146 37.233-10.146 13.127 0 26.003 3.509 37.236 10.148.399.235.837.348 1.27.348.855 0 1.688-.438 2.155-1.228.702-1.189.308-2.723-.88-3.425-12.003-7.094-25.759-10.844-39.78-10.844-14.018 0-27.772 3.749-39.776 10.841-1.189.702-1.583 2.235-.881 3.424.701 1.19 2.236 1.584 3.423.882z"/></g></g></svg>