<svg id="Layer_1" enable-background="new 0 0 128 128" height="64" viewBox="0 0 128 128" width="64" xmlns="http://www.w3.org/2000/svg"><g><g fill="#e6e7e8"><path d="m66 7.5c-21.868 0-39.658 17.791-39.658 39.658 0 11.906 5.431 24.091 14.527 32.594 5.036 4.707 8.868 10.491 11.4 17.189v15.528c0 2.757 2.243 5 5 5h.513v2.031c0 2.757 2.243 5 5 5h6.436c2.757 0 5-2.243 5-5v-2.031h.514c2.757 0 5-2.243 5-5v-15.53c2.533-6.698 6.365-12.481 11.399-17.187 9.097-8.503 14.527-20.688 14.527-32.594 0-21.867-17.791-39.658-39.658-39.658z"/><path d="m110.667 49.442h11.666c1.93 0 3.5-1.57 3.5-3.5s-1.57-3.5-3.5-3.5h-11.666c-1.93 0-3.5 1.57-3.5 3.5s1.57 3.5 3.5 3.5z"/><path d="m110.669 33.442c.635 0 1.257-.173 1.799-.499l11.665-7c.803-.48 1.369-1.245 1.596-2.152.228-.907.087-1.848-.395-2.649-.481-.803-1.247-1.369-2.155-1.596-.911-.227-1.85-.085-2.646.396l-11.665 7c-.803.48-1.369 1.245-1.596 2.152-.228.907-.087 1.848.395 2.649.628 1.048 1.778 1.699 3.002 1.699z"/><path d="m124.134 65.941-11.665-6.999c-.799-.482-1.742-.622-2.646-.396-.909.227-1.675.793-2.156 1.596-.481.802-.622 1.742-.395 2.649s.793 1.672 1.595 2.152l11.665 6.999c.543.327 1.165.5 1.8.5 1.224 0 2.374-.651 3.003-1.699.481-.802.622-1.742.395-2.649-.228-.907-.795-1.672-1.596-2.153z"/><path d="m21.333 42.442h-11.666c-1.93 0-3.5 1.57-3.5 3.5s1.57 3.5 3.5 3.5h11.666c1.93 0 3.5-1.57 3.5-3.5s-1.57-3.5-3.5-3.5z"/><path d="m7.866 25.943 11.665 6.999c.543.327 1.166.5 1.8.5 1.224 0 2.374-.651 3.003-1.699.481-.802.622-1.742.395-2.649s-.793-1.672-1.595-2.152l-11.665-6.999c-.8-.481-1.741-.622-2.647-.396-.908.227-1.674.793-2.155 1.596-.481.802-.622 1.742-.395 2.649.226.906.792 1.671 1.594 2.151z"/><path d="m22.178 58.546c-.907-.226-1.847-.085-2.646.396l-11.666 7c-.802.48-1.369 1.245-1.596 2.152s-.086 1.848.395 2.649c.629 1.048 1.779 1.699 3.003 1.699.634 0 1.257-.173 1.799-.499l11.666-7c.802-.48 1.369-1.245 1.596-2.152s.086-1.848-.395-2.649c-.482-.803-1.248-1.37-2.156-1.596z"/></g><g><g><g><path d="m70.731 112.468h-17.462c-2.209 0-4-1.791-4-4v-15.721h25.462v15.721c0 2.21-1.791 4-4 4z" fill="#0089ef"/><path d="m65.218 119.5h-6.436c-2.209 0-4-1.791-4-4v-3.032h14.436v3.032c0 2.209-1.791 4-4 4z" fill="#6dc9f7"/><path d="m62 4.5c-21.35 0-38.658 17.308-38.658 38.658 0 12.075 5.537 23.756 14.21 31.863 5.3 4.955 9.223 11.058 11.717 17.726h25.462c2.495-6.668 6.417-12.772 11.717-17.726 8.673-8.107 14.21-19.788 14.21-31.863 0-21.35-17.308-38.658-38.658-38.658z" fill="#ffd7e5"/><path d="m62 7.5c20.818 0 37.784 16.457 38.618 37.069.017-.47.04-.94.04-1.411 0-21.35-17.308-38.658-38.658-38.658s-38.658 17.308-38.658 38.658c0 .472.023.941.04 1.411.834-20.612 17.8-37.069 38.618-37.069z" fill="#fff"/></g></g><g><path d="m70 44.413h-.661c-2.066 1.485-4.596 2.37-7.339 2.37s-5.273-.885-7.339-2.37h-.661c-6.627 0-12 5.373-12 12v11.592c0 1.104.895 2 2 2h36c1.105 0 2-.896 2-2v-11.592c0-6.627-5.373-12-12-12z" fill="#0089ef"/><ellipse cx="62" cy="34.272" fill="#fff" rx="12.565" ry="12.512"/></g><g><g fill="#fa759e"><path d="m118.333 44.442h-11.666c-1.381 0-2.5-1.119-2.5-2.5s1.119-2.5 2.5-2.5h11.666c1.381 0 2.5 1.119 2.5 2.5s-1.119 2.5-2.5 2.5z"/><path d="m106.669 28.442c-.849 0-1.677-.433-2.146-1.214-.711-1.184-.327-2.72.857-3.43l11.666-7c1.182-.711 2.719-.327 3.43.857s.327 2.72-.857 3.43l-11.666 7c-.402.243-.846.357-1.284.357z"/><path d="m118.331 67.442c-.438 0-.882-.114-1.284-.356l-11.666-7c-1.185-.71-1.568-2.246-.857-3.43.711-1.185 2.249-1.568 3.43-.857l11.666 7c1.185.71 1.568 2.246.857 3.43-.469.781-1.297 1.213-2.146 1.213z"/></g><g><path d="m5.667 44.442h11.666c1.381 0 2.5-1.119 2.5-2.5s-1.119-2.5-2.5-2.5h-11.666c-1.381 0-2.5 1.119-2.5 2.5s1.119 2.5 2.5 2.5z" fill="#fa759e"/><path d="m17.331 28.442c.849 0 1.677-.433 2.146-1.214.711-1.184.327-2.72-.857-3.43l-11.666-7c-1.182-.711-2.719-.327-3.43.857s-.327 2.72.857 3.43l11.666 7c.402.243.845.357 1.284.357z" fill="#fa759e"/><g><path d="m5.669 67.442c.438 0 .882-.114 1.284-.356l11.666-7c1.185-.71 1.568-2.246.857-3.43-.711-1.185-2.249-1.568-3.43-.857l-11.666 7c-1.185.71-1.568 2.246-.857 3.43.469.781 1.297 1.213 2.146 1.213z" fill="#fa759e"/><g fill="#3a2c60"><path d="m62 3.5c-21.868 0-39.658 17.791-39.658 39.658 0 11.906 5.431 24.091 14.527 32.594 5.035 4.707 8.867 10.49 11.399 17.188v15.529c0 2.757 2.243 5 5 5h.513v2.031c0 2.757 2.243 5 5 5h6.437c2.757 0 5-2.243 5-5v-2.031h.513c2.757 0 5-2.243 5-5v-15.528c2.531-6.697 6.363-12.481 11.399-17.189 9.097-8.502 14.527-20.687 14.527-32.594.001-21.867-17.789-39.658-39.657-39.658zm11.731 97.912h-23.462v-7.665h23.462zm-5.513 14.088c0 1.654-1.346 3-3 3h-6.437c-1.654 0-3-1.346-3-3v-2.031h12.437zm2.513-4.031h-17.462c-1.654 0-3-1.346-3-3v-5.057h23.462v5.057c0 1.654-1.346 3-3 3zm15.034-37.178c-5.141 4.805-9.082 10.675-11.723 17.456h-24.084c-2.642-6.782-6.583-12.652-11.723-17.456-8.7-8.132-13.893-19.771-13.893-31.133 0-20.764 16.893-37.658 37.658-37.658 20.764 0 37.658 16.894 37.658 37.658 0 11.363-5.194 23.002-13.893 31.133z"/><path d="m71.827 43.558c2.31-2.424 3.738-5.689 3.738-9.287 0-7.45-6.085-13.512-13.565-13.512s-13.565 6.062-13.565 13.512c0 3.598 1.428 6.863 3.738 9.287-6.305.891-11.173 6.309-11.173 12.855v11.592c0 1.654 1.346 3 3 3h10.375c.552 0 1-.447 1-1s-.448-1-1-1h-10.375c-.551 0-1-.448-1-1v-11.592c0-6.065 4.935-11 11-11h.341c2.181 1.492 4.818 2.37 7.659 2.37s5.477-.878 7.659-2.37h.341c6.065 0 11 4.935 11 11v11.592c0 .552-.448 1-1 1h-9.249c-.553 0-1 .447-1 1s.447 1 1 1h9.249c1.654 0 3-1.346 3-3v-11.592c0-6.546-4.869-11.963-11.173-12.855zm-21.392-9.287c0-6.348 5.188-11.512 11.565-11.512 6.376 0 11.565 5.164 11.565 11.512s-5.189 11.512-11.565 11.512c-6.377 0-11.565-5.164-11.565-11.512z"/><path d="m66.938 69.005h-8.813c-.552 0-1 .447-1 1s.448 1 1 1h8.813c.553 0 1-.447 1-1s-.447-1-1-1z"/><path d="m106.667 45.442h11.666c1.93 0 3.5-1.57 3.5-3.5s-1.57-3.5-3.5-3.5h-11.666c-1.93 0-3.5 1.57-3.5 3.5s1.57 3.5 3.5 3.5zm0-5h11.666c.827 0 1.5.673 1.5 1.5s-.673 1.5-1.5 1.5h-11.666c-.827 0-1.5-.673-1.5-1.5s.672-1.5 1.5-1.5z"/><path d="m106.668 29.442c.635 0 1.257-.173 1.799-.499l11.665-7c.803-.48 1.369-1.245 1.596-2.152.228-.907.087-1.848-.395-2.649-.481-.803-1.247-1.369-2.155-1.596-.911-.227-1.849-.085-2.646.396l-11.665 7c-.803.48-1.369 1.245-1.596 2.152-.228.907-.087 1.848.395 2.649.628 1.048 1.779 1.699 3.002 1.699zm-1.457-3.864c.097-.389.34-.716.684-.922l11.667-7.001c.235-.142.499-.214.768-.214.121 0 .244.015.365.045.389.098.718.341.924.685s.267.747.169 1.136c-.097.389-.34.716-.684.922l-11.667 7.001c-.687.413-1.645.173-2.057-.516-.206-.344-.266-.747-.169-1.136z"/><path d="m120.133 61.941-11.665-6.999c-.8-.482-1.741-.622-2.646-.396-.909.227-1.675.793-2.156 1.596-.481.802-.622 1.742-.395 2.649s.793 1.672 1.595 2.152l11.665 6.999c.543.327 1.165.5 1.8.5 1.224 0 2.374-.651 3.003-1.699.481-.802.622-1.742.395-2.649-.228-.907-.794-1.672-1.596-2.153zm-.514 3.773c-.413.688-1.37.93-2.058.515l-11.667-7c-.343-.206-.586-.533-.683-.922-.098-.389-.037-.792.169-1.136s.535-.587.925-.685c.121-.03.243-.045.365-.045.268 0 .532.073.768.215l11.667 7c.343.206.586.533.683.922s.037.792-.169 1.136z"/><path d="m17.333 38.442h-11.666c-1.93 0-3.5 1.57-3.5 3.5s1.57 3.5 3.5 3.5h11.666c1.93 0 3.5-1.57 3.5-3.5s-1.57-3.5-3.5-3.5zm0 5h-11.666c-.827 0-1.5-.673-1.5-1.5s.673-1.5 1.5-1.5h11.666c.827 0 1.5.673 1.5 1.5s-.673 1.5-1.5 1.5z"/><path d="m3.866 21.943 11.665 6.999c.543.327 1.166.5 1.8.5 1.224 0 2.374-.651 3.003-1.699.481-.802.622-1.742.395-2.649s-.793-1.672-1.595-2.152l-11.665-7c-.8-.482-1.74-.622-2.647-.396-.908.227-1.674.793-2.155 1.596-.481.802-.622 1.742-.395 2.649.226.907.792 1.672 1.594 2.152zm.515-3.772c.207-.344.535-.587.924-.685.121-.03.243-.045.365-.045.268 0 .532.073.768.215l11.667 7c.344.206.586.533.684.922s.037.792-.169 1.136c-.413.688-1.367.932-2.058.515l-11.667-7c-.344-.206-.586-.533-.684-.922s-.037-.792.17-1.136z"/><path d="m18.178 54.546c-.906-.226-1.847-.086-2.646.396l-11.666 7c-.802.48-1.369 1.245-1.596 2.152s-.086 1.848.395 2.649c.629 1.048 1.779 1.699 3.003 1.699.634 0 1.257-.173 1.799-.499l11.666-7c.802-.48 1.369-1.245 1.596-2.152s.086-1.848-.395-2.649c-.482-.803-1.248-1.37-2.156-1.596zm.611 3.761c-.097.389-.34.716-.684.922l-11.667 7c-.688.414-1.644.172-2.057-.516-.207-.344-.267-.747-.169-1.136s.34-.716.684-.922l11.667-7.001c.235-.142.499-.214.767-.214.122 0 .244.015.365.045.39.098.718.341.925.685s.266.748.169 1.137z"/></g></g></g></g></g></g></svg>