<svg id="Layer_1" enable-background="new 0 0 256 256" height="64" viewBox="0 0 256 256" width="64" xmlns="http://www.w3.org/2000/svg"><path d="m18.688 139.613c0-.206.017-.418.051-.635l12.624-17.359c1.301-.668 2.622-.56 3.535.321l14.242 13.742c.527.508.816 1.171.816 1.869 0 .929-.509 1.843-1.418 2.577l-6.188.542.65 3.507c6.671 36.002 35.672 64.515 72.165 70.95 8.576 1.512 17.361 1.768 26.112.759 45.193-5.213 79.273-43.004 79.273-87.907 0-2.128-.078-4.289-.232-6.422-2.912-40.398-33.101-73.576-73.415-80.684-7.745-1.365-15.679-1.707-23.581-1.016-21.194 1.854-41.092 11.16-56.031 26.204-1.975 1.989-4.793 2.887-7.536 2.403-1.42-.25-2.76-.871-3.876-1.795-1.777-1.474-2.861-3.638-2.972-5.937-.007-.131-.01-.263-.01-.394 0-2.174.884-4.312 2.426-5.865 17.739-17.881 41.375-28.941 66.553-31.143 9.382-.821 18.8-.416 27.994 1.206 49.047 8.648 84.955 49.091 87.322 98.35.08 1.663.12 3.349.12 5.01 0 25.675-9.582 50.469-26.98 69.815-17.462 19.417-41.375 31.732-67.336 34.678-10.319 1.171-20.68.86-30.797-.924-44.286-7.808-78.868-42.517-86.054-86.368l-.486-2.966-4.035.353c-.241.021-.482.011-.716-.03-1.327-.235-2.22-1.376-2.22-2.841z" fill="#6bdddd"/><circle cx="128" cy="127.719" fill="#e0ebfc" r="44.6"/><path d="m108.885 106.836v41.766c0 3.938 4.272 6.392 7.674 4.408l35.799-20.883c3.376-1.969 3.376-6.847 0-8.816l-35.799-20.883c-3.401-1.984-7.674.47-7.674 4.408z" fill="#f9a7a7"/><path d="m128 174.319c-25.695 0-46.6-20.905-46.6-46.6s20.905-46.6 46.6-46.6 46.6 20.905 46.6 46.6-20.905 46.6-46.6 46.6zm0-89.2c-23.49 0-42.6 19.11-42.6 42.6s19.11 42.6 42.6 42.6 42.6-19.11 42.6-42.6-19.11-42.6-42.6-42.6z" fill="#3762cc"/><path d="m234.623 21.096c-13.473-13.473-35.317-13.473-48.79 0-12.202 12.202-13.352 31.271-3.452 44.768l-12.051 12.05.299-4.539c.06-.911-.238-1.791-.841-2.478-.603-.688-1.437-1.099-2.347-1.16-.076-.005-.152-.007-.228-.007-1.795 0-3.292 1.404-3.41 3.195l-.991 15.055c-.006.075-.008.151-.008.225 0 .914.356 1.773 1.001 2.418.636.637 1.517 1.002 2.418 1.002h.001c.075 0 .15-.003.225-.007l15.056-.991c1.881-.124 3.311-1.755 3.188-3.637-.118-1.792-1.615-3.196-3.41-3.196-.076 0-.151.002-.228.007l-4.539.299 11.888-11.888c13.551 11.094 33.572 10.319 46.218-2.327 13.474-13.472 13.474-35.316.001-48.789z" fill="#f9a7a7"/><path d="m234.623 185.552c-12.412-12.412-31.923-13.38-45.455-2.923l-11.966-11.966 3.589.236c.072.004.145.007.217.007 1.799 0 3.299-1.403 3.417-3.195.06-.912-.239-1.792-.841-2.479s-1.436-1.098-2.347-1.158l-14.181-.933c-.072-.004-.145-.007-.217-.007-.917 0-1.777.356-2.421 1.001-.697.696-1.06 1.66-.995 2.643l.933 14.177c.117 1.792 1.616 3.196 3.411 3.196.075 0 .15-.002.227-.007.912-.06 1.745-.471 2.347-1.158s.901-1.567.841-2.479l-.236-3.585 11.966 11.966c-10.457 13.531-9.489 33.042 2.923 45.454 13.473 13.473 35.317 13.473 48.79 0 13.471-13.472 13.471-35.317-.002-48.79z" fill="#e0ebfc"/><path d="m91.018 163.415c-.636-.637-1.517-1.003-2.418-1.003-.075 0-.151.003-.225.007l-14.177.933c-1.792.117-3.196 1.616-3.196 3.411 0 .075.002.15.007.227.118 1.792 1.615 3.196 3.41 3.196.076 0 .151-.002.228-.007l3.584-.237-12.129 12.128c-13.495-9.867-32.536-8.708-44.726 3.482-13.473 13.473-13.473 35.317 0 48.79s35.317 13.473 48.79 0c12.634-12.634 13.42-32.628 2.361-46.179l11.962-11.962-.237 3.588c-.117 1.88 1.314 3.51 3.188 3.633.076.005.152.007.228.007 1.795 0 3.293-1.404 3.41-3.196l.933-14.181c.062-.983-.3-1.945-.993-2.637z" fill="#b9befc"/><path d="m91.53 73.547c-.117-1.792-1.617-3.196-3.414-3.196-.074 0-.148.003-.223.007-.912.06-1.745.472-2.347 1.158-.602.687-.901 1.568-.841 2.479l.299 4.539-11.946-11.943c10.49-13.533 9.533-33.07-2.891-45.495-13.473-13.473-35.317-13.473-48.79 0s-13.473 35.317 0 48.79c12.424 12.424 31.962 13.382 45.495 2.891l11.945 11.945-4.539-.299c-.076-.005-.152-.007-.227-.007-1.795 0-3.293 1.404-3.411 3.195-.06.912.239 1.792.841 2.479s1.436 1.098 2.347 1.158l15.055.991c.075.006.151.008.225.008.914 0 1.773-.356 2.418-1.001.697-.696 1.06-1.66.995-2.644z" fill="#4671c6"/><g fill="#3762cc"><path d="m166.225 93.626c-1.428 0-2.825-.579-3.833-1.589-1.022-1.021-1.586-2.382-1.586-3.831 0-.126.004-.254.014-.381l.989-15.032c.195-2.961 2.793-5.262 5.774-5.051 1.436.095 2.757.747 3.711 1.836.795.907 1.256 2.027 1.333 3.211l7.157-7.156c-9.446-14.272-7.582-33.734 4.636-45.952 14.231-14.231 37.387-14.231 51.619 0 14.231 14.231 14.231 37.387 0 51.619-12.889 12.889-32.992 14.295-47.467 3.576l-6.93 6.93c2.684.176 4.87 2.332 5.049 5.052.194 2.984-2.072 5.569-5.053 5.765l-15.055.991c-.13.009-.244.012-.358.012zm1.079-21.893c-.836 0-1.455.582-1.504 1.324l-.991 15.055c-.003.479.14.826.412 1.097.262.262.636.417 1.004.417l.109-.004 15.041-.99c.781-.051 1.375-.729 1.324-1.512-.049-.743-.67-1.326-1.415-1.326l-4.636.302c-.824.053-1.609-.411-1.953-1.17s-.182-1.651.408-2.24l11.888-11.888c.726-.727 1.885-.785 2.681-.133 12.96 10.609 31.677 9.666 43.537-2.194 6.138-6.139 9.519-14.3 9.519-22.981s-3.381-16.843-9.519-22.981c-12.672-12.671-33.291-12.67-45.962 0-11.243 11.243-12.641 29.373-3.253 42.171.584.796.5 1.899-.199 2.597l-12.051 12.05c-.589.589-1.482.752-2.24.407-.759-.344-1.225-1.122-1.17-1.953l.3-4.54c.025-.383-.096-.738-.349-1.028-.254-.29-.591-.457-.975-.482-.002.002-.004.002-.006.002z"/><path d="m210.228 246.431c-9.347 0-18.693-3.558-25.809-10.674-12.527-12.526-14.176-32.291-4.137-46.668l-7.213-7.213c-.191.891-.607 1.724-1.225 2.429-.955 1.089-2.275 1.74-3.72 1.835-.124.008-.241.012-.358.012-2.845 0-5.22-2.225-5.406-5.065l-.933-14.177c-.103-1.559.472-3.086 1.579-4.189 1.099-1.101 2.604-1.673 4.172-1.575l14.191.933c1.445.095 2.766.747 3.72 1.836.955 1.089 1.428 2.485 1.333 3.929-.161 2.449-1.951 4.44-4.269 4.941l7.217 7.217c14.376-10.039 34.142-8.391 46.668 4.137 14.231 14.231 14.231 37.387 0 51.619-7.116 7.115-16.463 10.673-25.81 10.673zm-39.284-71.509c.52 0 1.031.203 1.415.586l11.966 11.966c.712.711.784 1.841.168 2.637-9.956 12.883-8.772 31.291 2.754 42.817 12.673 12.673 33.292 12.672 45.962 0 12.672-12.672 12.672-33.291 0-45.962-11.527-11.526-29.934-12.71-42.817-2.754-.797.615-1.927.543-2.637-.168l-11.966-11.966c-.589-.589-.751-1.481-.408-2.24.344-.758 1.113-1.225 1.953-1.17l3.589.236h.005c.831 0 1.452-.582 1.501-1.323.025-.384-.096-.74-.35-1.03s-.591-.456-.975-.481l-14.181-.933c-.455 0-.82.141-1.091.412-.292.291-.442.69-.415 1.098l.933 14.178c.049.744.67 1.327 1.415 1.327.479-.028.816-.195 1.07-.484s.375-.645.35-1.029l-.236-3.584c-.055-.831.411-1.609 1.17-1.953.264-.122.546-.18.825-.18z"/><path d="m45.771 246.431c-9.347 0-18.693-3.558-25.809-10.674-6.894-6.894-10.691-16.06-10.691-25.81s3.797-18.915 10.691-25.809c12.405-12.405 31.455-14.252 45.909-4.666l7.408-7.408c-2.314-.5-4.104-2.493-4.266-4.942-.008-.125-.012-.242-.012-.358 0-2.845 2.225-5.22 5.065-5.406l14.176-.933c.127-.008.243-.011.357-.011 1.427 0 2.823.579 3.832 1.588 1.099 1.098 1.673 2.62 1.576 4.177l-.933 14.188c-.194 2.958-2.774 5.246-5.761 5.053-2.465-.162-4.444-1.962-4.944-4.269l-7.181 7.18c10.684 14.472 9.263 34.556-3.607 47.426-7.116 7.116-16.462 10.674-25.81 10.674zm-.011-69.046c-8.344 0-16.63 3.243-22.969 9.582-12.672 12.672-12.672 33.291 0 45.962 12.673 12.673 33.292 12.672 45.962 0 11.843-11.843 12.8-30.544 2.225-43.5-.649-.795-.591-1.953.135-2.679l11.962-11.962c.589-.589 1.481-.752 2.24-.408s1.225 1.122 1.17 1.953l-.236 3.588c-.048.776.545 1.455 1.323 1.506h.007c.837 0 1.456-.582 1.504-1.324l.933-14.182c.025-.405-.125-.805-.411-1.091-.001-.001-.002-.002-.003-.003-.259-.26-.633-.415-1.001-.415l-.108.003-14.163.932c-.744.049-1.327.67-1.327 1.415l.003.1c.049.739.67 1.322 1.414 1.322l.1-.003 3.58-.236c.832-.058 1.609.411 1.953 1.169.344.759.182 1.651-.407 2.24l-12.128 12.128c-.696.698-1.798.783-2.595.2-5.779-4.223-12.49-6.297-19.163-6.297z"/><path d="m89.108 94.248c-.122 0-.246-.004-.368-.013l-15.044-.99c-1.444-.095-2.765-.747-3.72-1.836-.955-1.091-1.428-2.486-1.332-3.93.179-2.719 2.365-4.875 5.049-5.051l-7.02-7.02c-14.383 10.075-34.166 8.438-46.711-4.108-6.894-6.894-10.691-16.06-10.691-25.81s3.797-18.915 10.691-25.809c14.231-14.231 37.387-14.231 51.619 0 12.545 12.545 14.182 32.328 4.108 46.711l7.019 7.019c.076-1.184.537-2.304 1.333-3.212.955-1.09 2.276-1.741 3.721-1.836.129-.008.242-.012.354-.012 2.847 0 5.223 2.225 5.41 5.064l.991 15.055c.103 1.559-.472 3.086-1.578 4.19-1.022 1.024-2.383 1.588-3.831 1.588zm-14.969-7.829c-.836 0-1.455.582-1.503 1.323-.025.384.096.74.35 1.031.253.289.59.455.974.48l15.056.991c.477-.003.825-.14 1.098-.412.29-.29.44-.689.414-1.098l-.991-15.056c-.049-.744-.672-1.326-1.418-1.326l-.106.004c-.37.024-.707.191-.961.48-.253.289-.374.645-.349 1.029l.299 4.54c.055.831-.411 1.609-1.17 1.953-.758.344-1.65.182-2.24-.408l-11.947-11.945c-.712-.712-.784-1.843-.167-2.639 9.99-12.888 8.818-31.312-2.725-42.856-12.672-12.671-33.29-12.67-45.962 0-6.138 6.139-9.519 14.3-9.519 22.981s3.381 16.843 9.519 22.981c11.544 11.543 29.968 12.714 42.855 2.725.797-.618 1.928-.546 2.64.167l11.944 11.945c.589.589.751 1.481.408 2.24-.344.759-1.129 1.226-1.953 1.17l-4.54-.299c-.002-.001-.004-.001-.006-.001z"/></g><path d="m59.615 231.245h-27.686v-7.259c0-7.037 5.704-12.741 12.741-12.741h2.204c7.037 0 12.741 5.704 12.741 12.741z" fill="#4671c6"/><path d="m59.615 233.245h-27.686c-1.104 0-2-.896-2-2v-7.259c0-8.128 6.613-14.741 14.741-14.741h2.204c8.128 0 14.741 6.613 14.741 14.741v7.259c0 1.105-.896 2-2 2zm-25.686-4h23.686v-5.259c0-5.923-4.818-10.741-10.741-10.741h-2.204c-5.923 0-10.741 4.818-10.741 10.741z" fill="#3762cc"/><circle cx="45.772" cy="197.402" fill="#f9cfcf" r="13.843"/><path d="m45.772 213.245c-8.736 0-15.843-7.107-15.843-15.843s7.107-15.843 15.843-15.843 15.843 7.107 15.843 15.843-7.107 15.843-15.843 15.843zm0-27.686c-6.53 0-11.843 5.313-11.843 11.843s5.313 11.843 11.843 11.843 11.843-5.313 11.843-11.843-5.313-11.843-11.843-11.843z" fill="#3762cc"/><path d="m223.947 231.245h-27.686v-7.259c0-7.037 5.704-12.741 12.741-12.741h2.204c7.037 0 12.741 5.704 12.741 12.741z" fill="#a4c9ff"/><path d="m223.947 233.245h-27.686c-1.104 0-2-.896-2-2v-7.259c0-8.128 6.613-14.741 14.741-14.741h2.204c8.128 0 14.741 6.613 14.741 14.741v7.259c0 1.105-.895 2-2 2zm-25.686-4h23.686v-5.259c0-5.923-4.818-10.741-10.741-10.741h-2.204c-5.923 0-10.741 4.818-10.741 10.741z" fill="#3762cc"/><circle cx="210.104" cy="197.402" fill="#f9cfcf" r="13.843"/><path d="m210.104 213.245c-8.736 0-15.843-7.107-15.843-15.843s7.107-15.843 15.843-15.843 15.843 7.107 15.843 15.843-7.107 15.843-15.843 15.843zm0-27.686c-6.53 0-11.843 5.313-11.843 11.843s5.313 11.843 11.843 11.843 11.843-5.313 11.843-11.843-5.312-11.843-11.843-11.843z" fill="#3762cc"/><path d="m59.615 67.223h-27.686v-7.259c0-7.037 5.704-12.741 12.741-12.741h2.204c7.037 0 12.741 5.704 12.741 12.741z" fill="#f9a7a7"/><path d="m59.615 69.223h-27.686c-1.104 0-2-.896-2-2v-7.259c0-8.128 6.613-14.741 14.741-14.741h2.204c8.128 0 14.741 6.613 14.741 14.741v7.259c0 1.104-.896 2-2 2zm-25.686-4h23.686v-5.259c0-5.923-4.818-10.741-10.741-10.741h-2.204c-5.923 0-10.741 4.818-10.741 10.741z" fill="#3762cc"/><circle cx="45.772" cy="33.38" fill="#f9cfcf" r="13.843"/><path d="m45.772 49.223c-8.736 0-15.843-7.107-15.843-15.843s7.107-15.843 15.843-15.843 15.843 7.107 15.843 15.843-7.107 15.843-15.843 15.843zm0-27.686c-6.53 0-11.843 5.313-11.843 11.843s5.313 11.843 11.843 11.843 11.843-5.313 11.843-11.843-5.313-11.843-11.843-11.843z" fill="#3762cc"/><path d="m223.947 67.223h-27.686v-7.259c0-7.037 5.704-12.741 12.741-12.741h2.204c7.037 0 12.741 5.704 12.741 12.741z" fill="#b9befc"/><path d="m223.947 69.223h-27.686c-1.104 0-2-.896-2-2v-7.259c0-8.128 6.613-14.741 14.741-14.741h2.204c8.128 0 14.741 6.613 14.741 14.741v7.259c0 1.104-.895 2-2 2zm-25.686-4h23.686v-5.259c0-5.923-4.818-10.741-10.741-10.741h-2.204c-5.923 0-10.741 4.818-10.741 10.741z" fill="#3762cc"/><circle cx="210.104" cy="33.38" fill="#f9cfcf" r="13.843"/><path d="m210.104 49.223c-8.736 0-15.843-7.107-15.843-15.843s7.107-15.843 15.843-15.843 15.843 7.107 15.843 15.843-7.107 15.843-15.843 15.843zm0-27.686c-6.53 0-11.843 5.313-11.843 11.843s5.313 11.843 11.843 11.843 11.843-5.313 11.843-11.843-5.312-11.843-11.843-11.843z" fill="#3762cc"/></svg>