<svg id="Layer_1" enable-background="new 0 0 128 128" height="64" viewBox="0 0 128 128" width="64" xmlns="http://www.w3.org/2000/svg"><path d="m120.192 99.285-6.571-6.726c2.601-.58 4.553-2.903 4.553-5.677v-55.839c0-3.209-2.61-5.819-5.819-5.819h-28.027c-5.696-4.01-12.458-6.217-19.574-6.3-7.392-.066-14.451 2.135-20.379 6.3h-29.055c-3.209 0-5.819 2.61-5.819 5.819v55.839c0 3.209 2.61 5.819 5.819 5.819h40.105v10.069h-6.015c-4.414 0-8.004 3.591-8.004 8.004 0 .552.448 1 1 1h42.863c.552 0 1-.448 1-1 0-4.414-3.591-8.004-8.004-8.004h-6.015v-10.068h18.848c.132.157.263.314.408.462l17.068 17.471c1.588 1.626 3.698 2.442 5.81 2.442 2.048 0 4.097-.768 5.674-2.308 3.203-3.129 3.263-8.281.134-11.484z" fill="#e6e7e8"/><path d="m52.425 87.702h14.825v12.069h-14.825z" fill="#6dc9f7"/><path d="m11.32 87.702h97.035c2.662 0 4.819-2.158 4.819-4.819v-55.84c0-2.662-2.158-4.819-4.819-4.819h-97.035c-2.662 0-4.819 2.158-4.819 4.819v55.839c-.001 2.662 2.157 4.82 4.819 4.82z" fill="#6dc9f7"/><path d="m16.489 76.939h86.696c1.596 0 2.889-1.293 2.889-2.889v-43.124c0-1.596-1.293-2.889-2.889-2.889h-86.696c-1.596 0-2.889 1.293-2.889 2.889v43.124c0 1.596 1.294 2.889 2.889 2.889z" fill="#d4fbff"/><path d="m38.406 106.776h42.863c0-3.868-3.136-7.004-7.004-7.004h-28.855c-3.868-.001-7.004 3.135-7.004 7.004z" fill="#6dc9f7"/><path d="m88.339 78.395c1.164-1.137 2.618-1.787 4.117-1.968l-5.595-5.727c-.885 1.116-1.841 2.194-2.887 3.216-1.05 1.026-2.154 1.959-3.295 2.82l5.596 5.728c.216-1.493.9-2.932 2.064-4.069z" fill="#ffd7e5"/><ellipse cx="60.347" cy="49.732" fill="#fa759e" rx="33.811" ry="33.811" transform="matrix(.012 -1 1 .012 9.915 109.495)"/><ellipse cx="60.347" cy="49.732" fill="#d4fbff" rx="25.921" ry="25.921" transform="matrix(.905 -.425 .425 .905 -15.421 30.388)"/><circle cx="60.347" cy="49.732" fill="#6dc9f7" r="19.181"/><path d="m115.477 95.984-17.068-17.471c-2.748-2.813-7.257-2.866-10.07-.117-2.813 2.748-2.866 7.257-.117 10.07l17.068 17.471c2.748 2.813 7.257 2.866 10.07.117 2.812-2.748 2.865-7.257.117-10.07z" fill="#0089ef"/><path d="m115.477 95.984-17.068-17.471c-2.748-2.813-7.257-2.866-10.07-.117-.368.36-.687.751-.96 1.164 2.794-1.859 6.599-1.534 9.03.954l17.068 17.471c2.388 2.445 2.659 6.169.843 8.906.365-.243.715-.519 1.04-.836 2.812-2.749 2.865-7.258.117-10.071z" fill="#fff"/><g fill="#3a2c60"><path d="m35.276 86.702h-7.082c-.552 0-1 .448-1 1s.448 1 1 1h7.082c.552 0 1-.448 1-1s-.448-1-1-1z"/><path d="m79.604 30.919c-5.025-5.144-11.752-8.023-18.943-8.106-7.177-.12-13.983 2.637-19.127 7.662-10.618 10.374-10.817 27.452-.444 38.07 5.267 5.391 12.26 8.096 19.26 8.096 6.788 0 13.583-2.544 18.81-7.651 10.618-10.374 10.818-27.453.444-38.071zm-1.841 36.639c-9.83 9.604-25.64 9.418-35.242-.411s-9.418-25.639.411-35.242c4.84-4.728 11.128-7.083 17.413-7.083 6.479 0 12.955 2.504 17.829 7.494 9.602 9.83 9.418 25.639-.411 35.242z"/><path d="m80.522 49.85c0-.04.006-.079.006-.119 0-5.738-2.419-10.912-6.277-14.59-.018-.022-.024-.05-.044-.071-.045-.048-.104-.073-.156-.11-3.558-3.303-8.292-5.348-13.506-5.399-.017-.001-.032-.01-.05-.01-.011 0-.019.006-.03.006-.04 0-.079-.006-.119-.006-5.296 0-10.107 2.067-13.711 5.416-.049.036-.105.059-.148.105-.019.02-.025.047-.042.068-3.859 3.678-6.28 8.853-6.28 14.593 0 .04.006.079.006.119 0 .01-.006.019-.006.03 0 .018.009.032.01.05.108 11.036 9.11 19.983 20.171 19.983.04 0 .079-.006.119-.006.01 0 .019.006.03.006.018 0 .032-.009.05-.01 10.969-.107 19.866-9.004 19.973-19.973.001-.017.01-.032.01-.05 0-.012-.005-.021-.006-.032zm-5.836 11.019c-1.368-1.21-2.856-2.247-4.451-3.066.483-2.13.768-4.464.839-6.923h7.397c-.237 3.752-1.608 7.193-3.785 9.989zm-32.462-9.989h7.397c.071 2.46.356 4.794.839 6.924-1.595.819-3.084 1.856-4.451 3.066-2.177-2.796-3.549-6.238-3.785-9.99zm19.272-8.98c2.196-.124 4.337-.583 6.345-1.386.726 2.49 1.17 5.342 1.241 8.366h-7.586zm0-2v-8.166c2.287.656 4.322 3.218 5.711 6.873-1.807.737-3.732 1.169-5.711 1.293zm4.455-7.456c2.214.72 4.246 1.847 5.998 3.303-.912.759-1.886 1.422-2.914 1.982-.828-2.128-1.874-3.922-3.084-5.285zm-6.455-.801v8.271c-2.084-.097-4.111-.533-6.008-1.306 1.449-3.815 3.6-6.456 6.008-6.965zm-7.837 6.087c-1.027-.56-2.001-1.223-2.914-1.982 1.752-1.456 3.784-2.584 5.999-3.304-1.211 1.363-2.256 3.157-3.085 5.286zm7.837 4.184v6.966h-7.883c.071-3.024.515-5.876 1.241-8.366 2.098.839 4.341 1.304 6.642 1.4zm-7.876 8.966h7.876v4.579c-2.477.097-4.893.589-7.153 1.487-.407-1.887-.655-3.933-.723-6.066zm7.876 6.579v10.361c-2.797-.591-5.248-4.06-6.653-8.907 2.097-.866 4.343-1.354 6.653-1.454zm2 10.27v-10.256c2.205.128 4.349.611 6.356 1.44-1.355 4.674-3.683 8.05-6.356 8.816zm0-12.256v-4.593h7.579c-.068 2.132-.316 4.178-.723 6.066-2.17-.862-4.484-1.348-6.856-1.473zm16.989-6.593h-7.404c-.072-3.374-.56-6.507-1.381-9.229 1.322-.693 2.562-1.545 3.716-2.529 2.973 3.08 4.857 7.201 5.069 11.758zm-31.206-11.758c1.153.983 2.394 1.836 3.716 2.529-.821 2.722-1.309 5.856-1.381 9.229h-7.404c.212-4.557 2.096-8.678 5.069-11.758zm.036 25.26c1.134-1.006 2.366-1.87 3.676-2.58.899 2.982 2.191 5.458 3.753 7.218-2.849-.926-5.388-2.537-7.429-4.638zm18.636 4.638c1.562-1.76 2.854-4.236 3.753-7.218 1.31.71 2.541 1.574 3.676 2.58-2.041 2.101-4.58 3.712-7.429 4.638z"/><path d="m116.192 95.285-6.571-6.726c2.602-.58 4.553-2.903 4.553-5.676v-55.84c0-3.209-2.61-5.819-5.819-5.819h-28.027c-5.696-4.01-12.458-6.217-19.574-6.3-7.386-.056-14.448 2.139-20.376 6.3h-29.059c-3.209 0-5.819 2.61-5.819 5.819v55.839c0 3.209 2.61 5.819 5.819 5.819h11.898c.552 0 1-.448 1-1s-.448-1-1-1h-11.898c-2.106 0-3.819-1.713-3.819-3.819v-55.839c0-2.106 1.713-3.819 3.819-3.819h26.478c-.605.516-1.201 1.046-1.776 1.607-6.651 6.498-10.374 15.196-10.482 24.494-.109 9.297 3.41 18.081 9.908 24.732s15.196 10.374 24.494 10.482c.14.002.278.002.417.002 7.344 0 14.35-2.27 20.218-6.479l4.655 4.765c-.106 1.312.105 2.643.634 3.873h-18.615-14.825-12.694c-.552 0-1 .448-1 1s.448 1 1 1h11.694v10.069h-6.015c-4.414 0-8.004 3.591-8.004 8.004 0 .552.448 1 1 1h42.863c.552 0 1-.448 1-1 0-4.414-3.591-8.004-8.004-8.004h-6.015v-10.067h18.848c.132.157.263.314.408.462l17.068 17.471c1.516 1.552 3.545 2.42 5.714 2.446h.097c2.133 0 4.144-.819 5.672-2.312 3.204-3.129 3.264-8.28.135-11.484zm-36.007 10.491h-40.696c.478-2.836 2.951-5.004 5.921-5.004h28.854c2.97-.001 5.444 2.167 5.921 5.004zm-13.935-7.005h-12.825v-10.069h12.825zm42.105-75.547c2.106 0 3.819 1.713 3.819 3.819v55.839c0 2.106-1.713 3.819-3.819 3.819h-.548l-8.683-8.888c-1.707-1.747-4.016-2.552-6.281-2.421l-4.652-4.762c4.433-5.88 6.877-12.991 6.964-20.493.108-9.298-3.41-18.081-9.908-24.732-.751-.768-1.534-1.493-2.34-2.182h25.448zm-48.391 59.316c-8.764-.103-16.962-3.611-23.087-9.88s-9.441-14.548-9.339-23.311c.103-8.764 3.611-16.962 9.88-23.087 6.175-6.033 14.3-9.341 22.917-9.341.131 0 .263.001.394.002 8.764.102 16.962 3.611 23.087 9.88s9.441 14.548 9.338 23.311c-.102 8.764-3.611 16.962-9.88 23.087-6.268 6.124-14.568 9.443-23.31 9.339zm22.218-5.695c.859-.694 1.691-1.431 2.491-2.213.796-.778 1.548-1.589 2.259-2.428l3.584 3.669c-1.045.382-2.03.98-2.876 1.807-.847.827-1.467 1.797-1.874 2.834zm32.478 28.494c-1.169 1.143-2.687 1.738-4.349 1.742-1.635-.019-3.164-.674-4.307-1.843l-17.067-17.471c-2.359-2.415-2.313-6.297.101-8.656 1.188-1.161 2.733-1.739 4.276-1.739 1.591 0 3.182.615 4.379 1.84l17.068 17.471c2.359 2.414 2.313 6.297-.101 8.656z"/></g></svg>